<svg id="Layer_1" data-name="Layer 1" xmlns="http://www.w3.org/2000/svg" viewBox="0 0 607.39 190.55"><defs><style>.cls-1,.cls-2{fill:#fff;stroke-width:3px;}.cls-1,.cls-3{stroke:#000;}.cls-1,.cls-2,.cls-3{stroke-miterlimit:10;}.cls-2{stroke:#020000;}.cls-4{font-size:184.86px;font-family:AldotheApache, Aldo the Apache;letter-spacing:0.11em;}</style></defs><title>logo ixora jadi</title><path d="M422.75,388.85A69,69,0,0,0,471.41,344H397.35Z" transform="translate(-93.32 -227.73)"/><path d="M356.54,368.2a67.54,67.54,0,0,0,63.09,21.33l-37.25-65.77Z" transform="translate(-93.32 -227.73)"/><path d="M341.34,301.05a71.08,71.08,0,0,0,13.1,64.7l37.6-64.7Z" transform="translate(-93.32 -227.73)"/><path d="M391.35,253a69,69,0,0,0-49,44.93h74.2Z" transform="translate(-93.32 -227.73)"/><path d="M456.62,273.14a67.5,67.5,0,0,0-62.14-20.78l36.72,65.55Z" transform="translate(-93.32 -227.73)"/><path d="M458.75,275.57l-37.1,65.34h50.74A71.16,71.16,0,0,0,475.22,321,70.27,70.27,0,0,0,458.75,275.57Z" transform="translate(-93.32 -227.73)"/><path class="cls-1" d="M271.3,272c2.05,52.9-.66,96-6.06,96.19C263.2,315.26,265.91,272.19,271.3,272Z" transform="translate(-93.32 -227.73)"/><path class="cls-2" d="M310.91,321.61c-46.78,3.12-85,1.75-85.27-3.06C272.42,315.43,310.6,316.8,310.91,321.61Z" transform="translate(-93.32 -227.73)"/><path d="M203.08,388.32c36,0,65.19-29.79,65.19-66.53C232.27,321.79,203.08,351.57,203.08,388.32Z" transform="translate(-93.32 -227.73)"/><path d="M268.27,321.79c0,36.74,29.19,66.53,65.19,66.53C333.46,351.57,304.28,321.79,268.27,321.79Z" transform="translate(-93.32 -227.73)"/><path d="M333.46,255.25c-36,0-65.19,29.8-65.19,66.54C304.28,321.79,333.46,292,333.46,255.25Z" transform="translate(-93.32 -227.73)"/><path d="M203.08,255.25c0,36.75,29.19,66.54,65.19,66.54C268.27,285.05,239.09,255.25,203.08,255.25Z" transform="translate(-93.32 -227.73)"/><path d="M147,235.94h0C135.57,236.5,124,260.42,124,265v1.6h0v0h0v.22h0v0h0v0h0v1.85c0,5,12.78,15.19,12.78,15.19h10.13l0-23.83V284H157s12.71-10.2,12.71-15.19V265C169.73,260.43,158.28,236.48,147,235.94Z" transform="translate(-93.32 -227.73)"/><path d="M108.79,295.24v0Z" transform="translate(-93.32 -227.73)"/><path d="M108.79,295.29v0Z" transform="translate(-93.32 -227.73)"/><path d="M108.79,295.48v0Z" transform="translate(-93.32 -227.73)"/><path d="M108.79,295.07v0Z" transform="translate(-93.32 -227.73)"/><path d="M108.79,294.89Z" transform="translate(-93.32 -227.73)"/><path d="M108.79,294.9h0Z" transform="translate(-93.32 -227.73)"/><polygon points="15.47 67.51 15.47 67.52 15.47 67.52 15.47 67.51"/><path d="M108.79,295.29v0Z" transform="translate(-93.32 -227.73)"/><path d="M93.32,293.82h0c.48,7.05,21.25,14.18,25.26,14.18h3.24c4.34,0,13.2-7.91,13.2-7.91v-6.27h0v-6.23s-8.85-7.86-13.19-7.86H118.6C114.59,279.73,93.78,286.81,93.32,293.82Z" transform="translate(-93.32 -227.73)"/><path d="M199.51,293.91h0c-.48-7.05-21.26-14.18-25.27-14.18H171c-4.34,0-13.2,7.9-13.2,7.9v6.27h0v6.23S166.65,308,171,308h3.24C178.24,308,199.05,300.92,199.51,293.91Z" transform="translate(-93.32 -227.73)"/><rect class="cls-3" x="36.46" y="78.79" width="34.19" height="81.79" rx="11.85"/><text class="cls-4" transform="translate(393.58 159.95) scale(0.98 1)">RA</text></svg>